Coordinates
version=1
nRows=22
nColumns=24
inDegrees=yes

Units are S.I. units (second, meters, Newtons, ...)
If the header above contains a line with 'inDegrees', this indicates whether rotational values are in degrees (yes) or radians (no).

endheader
time	pelvis_tilt	pelvis_list	pelvis_rotation	pelvis_tx	pelvis_ty	pelvis_tz	hip_flexion_r	hip_adduction_r	hip_rotation_r	knee_angle_r	ankle_angle_r	subtalar_angle_r	mtp_angle_r	hip_flexion_l	hip_adduction_l	hip_rotation_l	knee_angle_l	ankle_angle_l	subtalar_angle_l	mtp_angle_l	lumbar_extension	lumbar_bending	lumbar_rotation
0.5	6.082423882838129	4.892789112506236	-4.908405278759143	-0.19103886643433543	1.0029429464924562	1.172074598460991	22.059886869121637	-4.123784863287058	-12.65555684274798	-18.628559813531908	4.476559130081778	-0.04357681351250282	4.199468950818879	-17.115553828200653	3.9193639014284467	2.333897330131934	1.4959983643316144	7.739517475701885	-2.2232413533507853	1.2978492624413942	-16.986582354903447	-3.7516679440132275	-2.471608085072995
0.517	2.655731519732255	-0.6832026876353376	-1.957007977173708	2.425802658540225	-1.058774368924196	0.524244012634581	18.59742158845753	-2.0122171055695857	-10.679189920247577	-13.200129178802458	1.0225762559746638	4.048721704963551	2.024157174702621	-14.6692408414837	3.962980484338117	0.3385071412249238	-0.043179686181872734	10.138056392933427	-1.3882579684325735	-1.3098981077144811	-18.82204124460564	-6.3467296501272745	-6.37544740247276
0.533	6.726991150142681	0.12135405775829633	-2.3441887166948012	1.367974546388849	0.49266205095025006	-0.6254528257085921	19.405638970735012	-4.50835108989551	-12.242206438824756	-8.703576715646555	2.6301127346532236	1.2704756997394577	-0.2822505969262688	-19.75145030220044	3.792233920075782	5.90659885123422	0.8258519046934927	9.005300082193497	1.6417528891507387	-1.9031015020258928	-18.2128840808844	-0.5153508720046749	-7.328520504223628
0.55	5.046908170431915	3.0827269142274303	2.6779715838758267	1.9515056969171705	0.8918331745787857	2.7325278424667134	19.229456070627712	-5.657515121544705	-5.180918676875191	-1.1648787996835845	-0.027722066569912385	0.6069514956548601	-3.6116353311940674	-16.728399317705115	5.229506678988704	-1.8023212837687073	-0.9987263001314748	7.463035092857288	-4.311822875397555	-0.810129579957838	-16.53973119558432	-4.395672045588794	-5.50598893464737
0.567	3.874556099874132	5.614189705595205	-2.3366340778136023	2.2598044537217787	0.20322934981988128	-3.0377807388205236	20.745721825614158	-8.551705328362766	-6.122133070462976	3.705357439643456	1.305729701214579	6.129807709720295	-3.6852429172702768	-20.06391006798526	7.12152933885481	0.7712751976209207	-1.0510924532555486	9.689540402086608	3.3175171027373374	-1.3116833805010282	-17.482495614103453	-6.0939029419893345	-5.353476431114018
0.583	3.8615902736609176	0.5467405019613394	0.5286767316315916	6.752081889062357	2.3714694258057727	3.345221905083931	19.44639093324726	-5.576890813960942	-3.306017356975132	1.4820150985151583	5.377515242319754	-0.7995225507841011	-0.11830706442928615	-20.697640011997482	7.081418946917536	1.9540893014837415	-4.889421227088633	12.500196576310461	1.2621968730445885	-1.3950555432719531	-16.992243902548886	-5.806659258969973	-7.54427370983324
0.6	2.190951438329867	1.2902441955836468	0.8328155129555184	0.9134810189446236	2.928718216474813	0.469535303829902	19.821036989329382	-5.812447099605766	-3.3460062715231427	1.4629014017834563	-0.214949296211272	0.05729860677520428	-1.215329326347089	-21.925732938181145	3.72413096090861	1.5953120992247443	-2.785412910381283	10.691267576361643	-0.46204737097017196	-0.2453651260025666	-15.007745256529242	-6.769647893780306	-4.370704203363773
0.617	1.6851405564131703	0.37589474425366465	0.24258996152831835	0.6010413047115618	2.7461062533788088	-1.146336435736607	19.237109655318402	-4.704435862868871	-1.569043712494627	-0.40462721453410244	4.155069599961999	2.1098327845460285	-3.5633407781135418	-21.541444733167832	6.763645185580058	-1.0337333548614058	-8.422390756740068	13.905071362025257	-1.0903917119187247	-1.9797130105977034	-16.6771910591591	-4.507138407627825	-6.915684746941655
0.633	3.9743615825521283	3.109781868782397	1.6154117997603283	-2.110713173758008	-0.3451487532162685	4.221439662622447	19.42535376127642	-8.838019418912198	-7.6287060121094	-7.321761872964935	-0.17355081302880415	-0.43900851238359506	0.11706970409755998	-25.251580560607827	1.5480786886826579	3.2106166831539764	-3.7730020455707534	12.584764598627348	3.2399686079766488	5.042646964955685	-16.65109992810503	-3.023867288617839	-4.005240732535556
0.65	3.2679832962152746	2.5535309678813563	2.0239868203623876	0.8747975284115682	0.6668695432845946	-1.3769054496092268	16.299974316008417	-4.384237404562418	-2.053273820610945	-6.4837925137517045	-1.6509255908427223	-1.3253694593992684	-1.4407031597678674	-24.741428465872165	3.7362169741112132	7.513652063024898	-5.8260820403247155	12.644417131345218	1.6957573069013663	0.2776171525628532	-14.177798047984176	-5.367939879843204	-8.588420185507367
0.667	5.0809658914624976	1.2346159390916225	2.502620709013484	4.789126427331809	-2.0150866362176854	-3.6326169585092845	21.82094587421553	-2.8001033609197608	-9.026663701045358	-9.502894852164514	1.2020938286345753	2.518034880360918	0.48186171395486294	-22.85780361475227	2.2897742956288907	5.475949113319413	-8.132885825061058	12.756055410833866	0.12091667519765091	0.274032551479738	-17.889901646409523	-0.5660739394642711	-7.3798089658199295
0.683	2.373319772579037	1.4767851293513767	0.620239974778888	-0.2262724071951221	2.379235334113676	2.1770553771095025	24.812015843606506	-6.608290225754444	-2.709043604778107	-12.075263184213005	-0.38529684027230515	-2.0826250265543536	-0.9782998359093501	-22.458727351739206	2.7794465251799356	3.4616639872503443	-13.156929418688701	15.641669921656955	1.817227831943652	5.689118534562613	-14.159566884900006	-1.5982734400298182	-8.96474477665698
0.7	2.958041700216795	2.9335539338679286	4.697207149379402	1.9742767147366669	3.1728322202661667	3.8420856954783833	21.847152137173897	-2.6283333394353767	-9.91161888147451	-12.70867968630833	0.5566462557819534	0.19088203359945732	-0.4161609044755071	-19.640262742461843	-2.4623856043693357	7.374203367356474	-17.06904057441341	10.076310440319256	3.0156351160484	1.174537717555917	-16.673449715775092	-1.4708404125605465	-7.438680231064974
0.717	2.354688883430944	1.1461682228712895	-0.3816812600877406	1.1938498556684811	0.38848855295294493	1.0230285937093215	21.907502586735404	-1.840748383272028	-5.195308264603046	-19.74635298460141	-1.8238116926021593	-0.10129534870374139	0.27912556677205097	-25.28224599217303	3.3074603564836114	3.6003317750651824	-17.64762710957866	8.104032981621845	0.5686812650762988	0.7271211569150549	-17.071326055931497	1.6887061930720768	-9.114310460418949
0.733	3.7443641137351844	1.5492051835546428	3.3080650430025256	2.054326959697744	5.965086265670002	1.7158099004546097	16.77343099984863	-6.78805615249949	-5.113853870551556	-19.389104553457702	-3.810810890758658	-3.4026043214354873	0.7576553898850811	-17.74338068103146	0.7620334222189631	-0.13056274920014044	-31.589432562126195	8.392493589854562	0.3309207789352828	-0.18499439023235129	-16.16622681681641	-2.625590872386415	-7.683022322333826
0.75	1.4659091967458657	1.630777720933596	3.3640928801294767	1.191358501175731	-4.876867686869452	-0.8192780906678705	20.819236178877848	-0.6661276934085003	-11.182283176587436	-22.986374684884815	1.2813683182038011	0.13940010611822595	0.5510250937381768	-18.11149746405179	0.8883892729615863	2.0452229902812906	-34.9017259383955	7.575292759101143	-0.08821706374523215	-0.6651153710941136	-15.446556762640702	0.13587829101004523	-5.81888354612297
0.767	-0.15771503934616504	-0.12735634910632898	3.3400936296014527	1.6527123575059082	1.8287640799437765	-1.4309375152880928	18.841588252728947	0.422621691864538	-6.229249190036955	-25.16394627135365	2.7104535677528445	-3.309762528760779	-0.0012973329672985301	-11.43321477426823	1.227338853839516	-0.37126311100197684	-40.442820527671955	-1.1524359318835857	3.1777848050748214	4.178236104404725	-14.230228678279673	-0.631493775846609	-5.805267656211291
0.783	4.1726518612574335	1.5286009060785726	4.838565801344589	-0.08935746173958814	1.7568967692737714	2.674195246160821	22.270292732292994	-0.05598786868985073	-9.745336782694086	-20.986787681857347	0.16499142025087932	-2.8055304501159712	-2.4292855065795127	-9.92425581439309	0.1648243737688344	2.6557052492783395	-47.25666820345286	-1.0630598650726029	0.5648089963349943	1.9549660151095332	-15.170664273658089	1.1462572082537867	-4.466054718767936
0.8	3.6275719799881276	-4.171696947387596	2.004195124626709	-1.068994733681063	-0.6431069125468589	-3.6888420794972796	18.051361049223264	-1.7374294182587666	-7.472926539443057	-26.28945213548564	3.3611381621847602	0.12022057955783759	0.9971614732914016	-8.411855452941172	-2.447649813769532	1.7860509094285433	-49.740258620867856	-1.6708070522832097	-2.668928812069402	0.7820821085078377	-14.063899417709422	0.16791598761440518	-4.233452473341298
0.817	4.722844863113228	-3.692220430219757	6.346768431656697	2.6817054953626296	2.3699875981175897	-1.5501157451529077	12.09336952406185	-4.111947800770492	-7.98254756236659	-25.30143903000129	4.181505003219301	0.42610534353738483	-2.881482648361619	-5.418849904220792	-8.13092800576778	-2.3782291842208125	-55.987902925433886	-6.886347554795119	1.4347971455326147	3.0901221510446844	-19.02846866173909	-0.7935500347262838	-11.867123462454488
0.833	2.547620572423113	-0.48856761176390795	5.1515037713447605	0.8100803053828103	2.208544514966545	1.2639648573397786	14.536952189350583	5.21275245678188	-5.321389948103384	-24.17578895980169	4.30808027436704	-0.9883240549890907	0.1857131674152157	-0.7798589544262728	-5.615277011933261	-5.199336202870942	-63.461283123347165	-9.327913988440303	0.9761150569786553	-1.1886919287902422	-18.276977928927355	3.6923054116824296	-7.505064284859403
0.85	2.2679988583836743	-5.306481690436854	0.8126741357458434	-1.078764086428825	-1.5867618494811193	-0.33407845409677317	11.938012315803684	4.663514234861282	-10.281653863114801	-23.78637927987737	6.106489993582487	1.1118412646231735	0.3698051365617888	2.430690533093174	-4.198388225036119	-2.5389993207754027	-63.88551682264335	-8.697136597473259	1.3440538937883868	-0.8366780723678761	-12.625910238672825	6.703373303687018	-4.860414405885264
